<svg xmlns="http://www.w3.org/2000/svg" width="900" height="520" viewBox="0 0 900 520">
<rect width="100%" height="100%" fill="white"/>
<text x="450.0" y="35" text-anchor="middle" font-family="Arial" font-size="22" font-weight="bold">Estimated 10-Year Treasury Term Premium</text>
<text x="24" y="260.0" text-anchor="middle" transform="rotate(-90 24 260.0)" font-family="Arial" font-size="14">Percent</text>
<line x1="90" x2="860" y1="440.0" y2="440.0" stroke="#dddddd"/>
<text x="78" y="445.0" text-anchor="end" font-family="Arial" font-size="13">0.58</text>
<line x1="90" x2="860" y1="347.49999999999994" y2="347.49999999999994" stroke="#dddddd"/>
<text x="78" y="352.49999999999994" text-anchor="end" font-family="Arial" font-size="13">0.62</text>
<line x1="90" x2="860" y1="255.00000000000014" y2="255.00000000000014" stroke="#dddddd"/>
<text x="78" y="260.0000000000001" text-anchor="end" font-family="Arial" font-size="13">0.66</text>
<line x1="90" x2="860" y1="162.50000000000006" y2="162.50000000000006" stroke="#dddddd"/>
<text x="78" y="167.50000000000006" text-anchor="end" font-family="Arial" font-size="13">0.70</text>
<line x1="90" x2="860" y1="70.0" y2="70.0" stroke="#dddddd"/>
<text x="78" y="75.0" text-anchor="end" font-family="Arial" font-size="13">0.74</text>
<text x="90.0" y="478" text-anchor="middle" font-family="Arial" font-size="14">Sep 14</text>
<text x="346.6666666666667" y="478" text-anchor="middle" font-family="Arial" font-size="14">Sep 15</text>
<text x="603.3333333333334" y="478" text-anchor="middle" font-family="Arial" font-size="14">Sep 16</text>
<text x="860.0" y="478" text-anchor="middle" font-family="Arial" font-size="14">Sep 17</text>
<polyline points="90.0,162.50000000000006 346.6666666666667,139.37500000000006 603.3333333333334,231.87499999999986 860.0,370.62499999999994" fill="none" stroke="#111111" stroke-width="3"/>
<circle cx="90.0" cy="162.50000000000006" r="5" fill="#111111"/>
<circle cx="346.6666666666667" cy="139.37500000000006" r="5" fill="#111111"/>
<circle cx="603.3333333333334" cy="231.87499999999986" r="5" fill="#111111"/>
<circle cx="860.0" cy="370.62499999999994" r="5" fill="#111111"/>
<line x1="520" x2="548" y1="58" y2="58" stroke="#111111" stroke-width="3"/>
<text x="555" y="63" font-family="Arial" font-size="13">10Y term premium</text>
</svg>